<svg width="14" height="10" viewBox="0 0 14 10" fill="none" xmlns="http://www.w3.org/2000/svg">
<path fill-rule="evenodd" clip-rule="evenodd" d="M0.8125 1.56266C0.8125 1.38031 0.884933 1.20543 1.01386 1.0765C1.1428 0.947559 1.31766 0.875122 1.5 0.875122H12.5C12.6823 0.875122 12.8572 0.947559 12.9861 1.0765C13.1151 1.20543 13.1875 1.38031 13.1875 1.56266C13.1875 1.745 13.1151 1.91988 12.9861 2.04881C12.8572 2.17775 12.6823 2.25019 12.5 2.25019H1.5C1.31766 2.25019 1.1428 2.17775 1.01386 2.04881C0.884933 1.91988 0.8125 1.745 0.8125 1.56266ZM2.875 5.00032C2.875 4.81798 2.94743 4.6431 3.07636 4.51416C3.2053 4.38523 3.38016 4.31279 3.5625 4.31279H10.4375C10.6198 4.31279 10.7947 4.38523 10.9236 4.51416C11.0526 4.6431 11.125 4.81798 11.125 5.00032C11.125 5.18267 11.0526 5.35754 10.9236 5.48648C10.7947 5.61542 10.6198 5.68786 10.4375 5.68786H3.5625C3.38016 5.68786 3.2053 5.61542 3.07636 5.48648C2.94743 5.35754 2.875 5.18267 2.875 5.00032ZM4.9375 8.43799C4.9375 8.25564 5.00993 8.08077 5.13886 7.95183C5.2678 7.82289 5.44266 7.75046 5.625 7.75046H8.375C8.55734 7.75046 8.7322 7.82289 8.86114 7.95183C8.99007 8.08077 9.0625 8.25564 9.0625 8.43799C9.0625 8.62033 8.99007 8.79521 8.86114 8.92415C8.7322 9.05309 8.55734 9.12552 8.375 9.12552H5.625C5.44266 9.12552 5.2678 9.05309 5.13886 8.92415C5.00993 8.79521 4.9375 8.62033 4.9375 8.43799Z" fill="white"/>
</svg>
